<?xml version="1.0" standalone="no"?>
<!DOCTYPE svg PUBLIC "-//W3C//DTD SVG 1.1//EN" "http://www.w3.org/Graphics/SVG/1.1/DTD/svg11.dtd" >
<svg xmlns="http://www.w3.org/2000/svg">
<metadata>Generated by IcoMoon</metadata>
<defs>
<font id="icomoon" horiz-adv-x="1024">
<font-face units-per-em="1024" ascent="960" descent="-64" />
<missing-glyph horiz-adv-x="1024" />
<glyph unicode="&#x20;" horiz-adv-x="512" d="" />
<glyph unicode="&#xe900;" glyph-name="arrow-down" d="M149.167 509.412l317.605-317.613c24.994-24.994 65.516-24.994 90.51 0 0.001 0.001 0.003 0.003 0.004 0.004l317.552 317.613c24.991 24.996 24.988 65.518-0.008 90.51-12.002 12-28.279 18.741-45.251 18.741h-635.156c-35.346 0-64-28.654-64-64 0-16.974 6.743-33.252 18.745-45.255z" />
<glyph unicode="&#xe901;" glyph-name="arrow-up" d="M149.167 343.922l317.605 317.613c24.994 24.994 65.516 24.994 90.51 0 0.001-0.001 0.003-0.003 0.004-0.004l317.552-317.613c24.991-24.996 24.988-65.518-0.008-90.51-12.002-12-28.279-18.741-45.251-18.741h-635.156c-35.346 0-64 28.654-64 64 0 16.974 6.743 33.252 18.745 45.255z" />
<glyph unicode="&#xe902;" glyph-name="time" d="M568.889 483.556h113.778c31.419 0 56.889-25.47 56.889-56.889s-25.47-56.889-56.889-56.889h-170.667c-15.709 0-29.932 6.368-40.227 16.662s-16.662 24.517-16.662 40.227v227.556c0 31.419 25.47 56.889 56.889 56.889s56.889-25.47 56.889-56.889v-170.667zM512-85.333c-282.77 0-512 229.23-512 512s229.23 512 512 512c282.77 0 512-229.23 512-512s-229.23-512-512-512zM512 28.445c219.932 0 398.222 178.29 398.222 398.222s-178.29 398.222-398.222 398.222c-219.932 0-398.222-178.29-398.222-398.222s178.29-398.222 398.222-398.222z" />
<glyph unicode="&#xe903;" glyph-name="explain" d="M512-85.333c-282.77 0-512 229.23-512 512s229.23 512 512 512c282.77 0 512-229.23 512-512s-229.23-512-512-512zM533.702 792.381c-74.349 0-132.622-21.099-175.824-63.297-44.207-42.198-65.306-100.471-65.306-174.819h114.537c0 42.198 8.038 75.353 25.118 98.462 19.089 28.132 50.235 41.193 94.443 41.193 34.16 0 61.287-9.042 80.377-28.132 18.085-19.089 28.132-45.212 28.132-78.367 0-25.118-9.042-49.231-27.127-71.334l-12.057-14.066c-65.306-58.273-104.49-100.471-117.551-127.598-14.066-27.127-20.094-60.283-20.094-98.462v-14.066h115.542v14.066c0 24.113 5.024 45.212 15.071 65.306 9.042 18.085 22.104 35.165 40.188 50.235 48.226 42.198 77.363 69.325 86.405 79.372 24.113 32.151 37.174 73.344 37.174 123.579 0 61.287-20.094 109.513-60.283 144.678-40.188 36.17-93.438 53.25-158.744 53.25zM515.617 212.664c-22.104 0-40.188-7.033-55.259-21.099s-22.104-32.151-22.104-54.254c0-22.104 7.033-40.188 22.104-54.254s33.155-22.104 55.259-22.104c22.104 0 40.188 7.033 55.259 21.099s23.108 33.155 23.108 55.259c0 22.104-8.038 40.188-22.104 54.254-15.071 14.066-34.16 21.099-56.264 21.099z" />
<glyph unicode="&#xe904;" glyph-name="Fail" d="M512-85.333c-282.77 0-512 229.23-512 512s229.23 512 512 512c282.77 0 512-229.23 512-512s-229.23-512-512-512zM641.3 452.527l77.58 77.58c14.282 14.282 14.282 37.438 0 51.72l-51.72 51.72c-14.282 14.282-37.438 14.282-51.72 0l-77.58-77.58c-14.282-14.282-37.438-14.282-51.72 0l-77.58 77.58c-14.282 14.282-37.438 14.282-51.72 0l-51.72-51.72c-14.282-14.282-14.282-37.438 0-51.72l77.58-77.58c14.282-14.282 14.282-37.438 0-51.72l-77.58-77.58c-14.282-14.282-14.282-37.438 0-51.72l51.72-51.72c14.282-14.282 37.438-14.282 51.72 0l77.58 77.58c14.282 14.282 37.438 14.282 51.72 0l77.58-77.58c14.282-14.282 37.438-14.282 51.72 0l51.72 51.72c14.282 14.282 14.282 37.438 0 51.72l-77.58 77.58c-14.282 14.282-14.282 37.438 0 51.72z" />
<glyph unicode="&#xe905;" glyph-name="Job-address" d="M146.286 938.667h731.429c80.791 0 146.286-65.494 146.286-146.286v-731.429c0-80.791-65.494-146.286-146.286-146.286h-731.429c-80.791 0-146.286 65.494-146.286 146.286v731.429c0 80.791 65.494 146.286 146.286 146.286v0zM874.002 157.139l-89.271 182.857c-9.947 29.842-37.925 49.993-69.376 49.993h-85.723c34.194 86.821 65.28 177.262 65.28 219.429 0 100.827-82.030 182.857-182.857 182.857s-182.857-82.030-182.857-182.857c0-42.167 31.086-132.608 65.28-219.429h-85.723c-31.451 0-59.429-20.151-69.376-49.993l-89.271-182.857c-7.461-22.345-3.73-46.848 10.021-65.938 13.751-19.054 35.84-30.354 59.355-30.354h585.143c23.515 0 45.605 11.301 59.355 30.354 13.751 19.090 17.481 43.593 10.021 65.938zM512.055 719.132c60.599 0 109.714-49.115 109.714-109.714 0-53.723-89.417-279.625-109.714-329.143-20.407 50.103-109.714 275.237-109.714 329.143 0 60.599 49.115 109.714 109.714 109.714zM512.055 554.561c30.318 0 54.857 24.503 54.857 54.857 0 30.318-24.539 54.857-54.857 54.857s-54.857-24.539-54.857-54.857c0-30.354 24.539-54.857 54.857-54.857z" />
<glyph unicode="&#xe906;" glyph-name="Job-content" d="M146.286 938.667h731.429c80.791 0 146.286-65.494 146.286-146.286v-731.429c0-80.791-65.494-146.286-146.286-146.286h-731.429c-80.791 0-146.286 65.494-146.286 146.286v731.429c0 80.791 65.494 146.286 146.286 146.286v0zM804.59 646.077h-73.143v-36.571h-73.143v73.143c0 20.187-16.384 36.571-36.571 36.571h-219.429c-20.224 0-36.571-16.384-36.571-36.571v-73.143h-73.143v36.571h-73.143v-36.571c-40.338 0-73.143-32.805-73.143-73.143v-365.714c0-40.375 32.805-73.143 73.143-73.143h585.143c40.338 0 73.143 32.768 73.143 73.143v365.714c0 40.338-32.805 73.143-73.143 73.143v36.571zM438.875 646.077h146.286v-36.571h-146.286v36.571z" />
<glyph unicode="&#xe907;" glyph-name="Job-people" d="M146.286 938.667h731.429c80.791 0 146.286-65.494 146.286-146.286v-731.429c0-80.791-65.494-146.286-146.286-146.286h-731.429c-80.791 0-146.286 65.494-146.286 146.286v731.429c0 80.791 65.494 146.286 146.286 146.286v0zM631.867 404.409v0c62.644-38.162 107.518-93.288 126.321-160.599h156.097v26.122c0 92.291-75.2 156.735-182.857 156.735-37.807 0-71.611-7.948-99.561-22.258zM841.143 572.953c0 60.507-49.207 109.714-109.714 109.714s-109.714-49.207-109.714-109.714c0-60.507 49.207-109.714 109.714-109.714s109.714 49.207 109.714 109.714zM548.571 572.953c0 80.677-65.609 146.286-146.286 146.286s-146.286-65.609-146.286-146.286c0-80.677 65.609-146.286 146.286-146.286s146.286 65.609 146.286 146.286zM109.714 170.667v-36.571h585.143v36.571c0 129.207-120.32 219.429-292.571 219.429s-292.571-90.222-292.571-219.429z" />
<glyph unicode="&#xe908;" glyph-name="Job-require" d="M146.286 938.667h731.429c80.791 0 146.286-65.494 146.286-146.286v-731.429c0-80.791-65.494-146.286-146.286-146.286h-731.429c-80.791 0-146.286 65.494-146.286 146.286v731.429c0 80.791 65.494 146.286 146.286 146.286v0zM877.714 426.649l-362.021 361.984-51.749-51.675 51.749-51.749-181.029-181.029-51.749 51.749-51.712-51.749 155.173-155.136-206.885-206.848 51.712-51.712 206.885 206.848 155.173-155.136 51.712 51.675-51.712 51.712 181.029 181.065 51.712-51.712 51.712 51.712z" />
<glyph unicode="&#xe909;" glyph-name="Job-reward" d="M146.286 938.667h731.429c80.791 0 146.286-65.494 146.286-146.286v-731.429c0-80.791-65.494-146.286-146.286-146.286h-731.429c-80.791 0-146.286 65.494-146.286 146.286v731.429c0 80.791 65.494 146.286 146.286 146.286v0zM182.846 354.592v-219.429c0-40.338 32.805-73.143 73.143-73.143h219.429v292.571h-292.571zM548.56 354.592v-292.571h219.429c40.338 0 73.143 32.805 73.143 73.143v219.429h-292.571zM804.571 574.032h-113.92c16.53 8.594 32.146 19.054 45.202 32.11 42.752 42.752 42.752 112.347-0.037 155.209-41.435 41.362-113.627 41.399-155.099-0.037-59.867-59.867-67.95-172.544-68.681-185.198-0.037-0.731 0.329-1.39 0.329-2.085h-0.768c0 0.695 0.366 1.353 0.329 2.085-0.731 12.654-8.814 125.33-68.681 185.234-41.435 41.362-113.664 41.362-155.136-0.073-42.752-42.789-42.752-112.347 0-155.136 13.056-13.056 28.709-23.515 45.202-32.11h-113.883c-40.338 0-73.143-32.805-73.143-73.143v-109.714h329.143v146.286h73.143v-146.286h329.143v109.714c0 40.338-32.805 73.143-73.143 73.143zM591.506 616.966c6.729 32.293 19.31 71.022 40.887 92.599 6.912 6.912 16.128 10.715 25.893 10.715s18.944-3.803 25.819-10.642c14.263-14.299 14.263-37.522 0-51.785-21.577-21.65-60.306-34.194-92.599-40.887zM339.858 657.853c-14.263 14.263-14.263 37.486 0 51.749 6.875 6.875 16.055 10.679 25.819 10.679 9.801 0 18.981-3.803 25.893-10.679 21.577-21.577 34.158-60.306 40.887-92.562-32.183 6.729-71.168 19.383-92.599 40.814z" />
<glyph unicode="&#xe90a;" glyph-name="Job-similar" d="M146.286 938.667h731.429c80.791 0 146.286-65.494 146.286-146.286v-731.429c0-80.791-65.494-146.286-146.286-146.286h-731.429c-80.791 0-146.286 65.494-146.286 146.286v731.429c0 80.791 65.494 146.286 146.286 146.286v0zM731.429 792.381v-109.714h-73.143v109.714h-109.714v-109.714h-73.143v109.714h-109.714v-109.714h-73.143v109.714h-109.714v-731.429h658.286v731.429h-109.714zM694.857 316.953h-365.714v73.143h365.714v-73.143zM694.857 170.667h-365.714v73.143h365.714v-73.143zM329.143 536.381h292.571v-73.143h-292.571v73.143z" />
<glyph unicode="&#xe90b;" glyph-name="location" d="M79.211 499.81c30.831 183.772 175.875 328.815 359.646 359.646v6.068c0 40.396 32.747 73.143 73.143 73.143s73.143-32.747 73.143-73.143v-6.068c183.772-30.831 328.815-175.875 359.646-359.646h6.068c40.396 0 73.143-32.747 73.143-73.143s-32.747-73.143-73.143-73.143h-6.068c-30.831-183.772-175.875-328.815-359.646-359.646v-6.068c0-40.396-32.747-73.143-73.143-73.143s-73.143 32.747-73.143 73.143v6.068c-183.772 30.831-328.815 175.875-359.646 359.646h-6.068c-40.396 0-73.143 32.747-73.143 73.143s32.747 73.143 73.143 73.143h6.068zM228.503 499.252c36.114-4.469 64.068-35.263 64.068-72.585s-27.955-68.117-64.068-72.585c26.359-103.261 107.651-184.552 210.912-210.912 4.469 36.114 35.263 64.068 72.585 64.068s68.117-27.955 72.585-64.068c103.261 26.359 184.552 107.651 210.912 210.912-36.114 4.469-64.068 35.263-64.068 72.585s27.955 68.117 64.068 72.585c-26.359 103.261-107.651 184.552-210.912 210.912-4.469-36.114-35.263-64.068-72.585-64.068s-68.117 27.955-72.585 64.068c-103.261-26.359-184.552-107.651-210.912-210.912zM512 280.381c-80.791 0-146.286 65.494-146.286 146.286s65.494 146.286 146.286 146.286c80.791 0 146.286-65.494 146.286-146.286s-65.494-146.286-146.286-146.286z" />
<glyph unicode="&#xe90c;" glyph-name="pass" d="M512-85.333c-282.77 0-512 229.23-512 512s229.23 512 512 512c282.77 0 512-229.23 512-512s-229.23-512-512-512zM312.574 474.523l-45.872-45.945c-14.269-14.28-14.269-37.421 0-51.7l160.462-160.66c14.277-14.287 37.432-14.296 51.72-0.019 0.006 0.006 0.013 0.013 0.019 0.019l284.631 284.921c14.269 14.28 14.269 37.421 0 51.7l-45.852 45.964c-14.277 14.287-37.432 14.296-51.72 0.019-0.006-0.006-0.013-0.013-0.019-0.019l-187.039-187.256c-14.277-14.287-37.432-14.296-51.72-0.019-0.006 0.006-0.013 0.013-0.019 0.019l-62.871 62.995c-14.277 14.287-37.432 14.296-51.72 0.019-0.006-0.006-0.013-0.013-0.019-0.019l0.019-0.019z" />
<glyph unicode="&#xe90d;" glyph-name="resume-certificate" d="M146.286 938.667h731.429c80.791 0 146.286-65.494 146.286-146.286v-731.429c0-80.791-65.494-146.286-146.286-146.286h-731.429c-80.791 0-146.286 65.494-146.286 146.286v731.429c0 80.791 65.494 146.286 146.286 146.286v0zM694.857 60.953v73.143h-365.714v-73.143h365.714zM841.143 755.81h-119.881c-12.69 21.723-36.023 36.571-62.976 36.571h-292.571c-26.953 0-50.286-14.848-62.976-36.571h-119.881c-20.187 0-36.571-16.421-36.571-36.571v-146.286c0-11.118 5.047-21.65 13.714-28.599l180.261-144.165c32.987-41.545 80.677-70.766 135.168-79.945v-39.863h-73.143c-20.187 0-36.571-16.421-36.571-36.571v-73.143h292.571v73.143c0 20.151-16.384 36.571-36.571 36.571h-73.143v39.863c54.491 9.179 102.181 38.4 135.168 79.945l180.261 144.165c8.667 6.949 13.714 17.481 13.714 28.599v146.286c0 20.151-16.384 36.571-36.571 36.571zM804.571 590.507l-73.362-58.697c0.037 1.536 0.219 3.035 0.219 4.571v146.286h73.143v-92.16zM219.429 590.507v92.16h73.143v-146.286c0-1.536 0.183-3.035 0.219-4.571l-73.362 58.697z" />
<glyph unicode="&#xe90e;" glyph-name="resume-education" d="M146.28 447.499l329.035-116.74c23.732-8.42 49.639-8.42 73.371 0l377.083 133.788c14.562 5.61 24.417 18.944 25.055 34.083s-7.979 29.203-22.023 35.966l-370.076 174.196c-29.593 13.929-63.858 13.929-93.451 0v0l-370.076-174.196c-13.678-6.587-22.209-20.099-22.054-34.786h-0.008v-109.714c0-20.198 16.374-36.571 36.571-36.571s36.571 16.374 36.571 36.571v57.404zM146.286 938.667h731.429c80.791 0 146.286-65.494 146.286-146.286v-731.429c0-80.791-65.494-146.286-146.286-146.286h-731.429c-80.791 0-146.286 65.494-146.286 146.286v731.429c0 80.791 65.494 146.286 146.286 146.286v0zM512 251.69c-4.791 0-9.582 0.935-14.080 2.768l-241.92 99.066v-108.34c0-13.587 7.826-26.061 20.224-32.135 62.72-30.841 127.342-68.979 235.776-68.979 108.361 0 173.166 38.21 235.776 68.979 12.398 6.075 20.224 18.548 20.224 32.135v100.719l-242.871-91.841c-4.242-1.582-8.667-2.372-13.129-2.372zM109.708 316.953c-20.187 0-36.571-16.384-36.571-36.571v-73.143c0-20.187 16.384-36.571 36.571-36.571s36.571 16.384 36.571 36.571v73.143c0 20.187-16.384 36.571-36.571 36.571z" />
<glyph unicode="&#xe90f;" glyph-name="resume-job" d="M146.286 938.667h731.429c80.791 0 146.286-65.494 146.286-146.286v-731.429c0-80.791-65.494-146.286-146.286-146.286h-731.429c-80.791 0-146.286 65.494-146.286 146.286v731.429c0 80.791 65.494 146.286 146.286 146.286v0zM804.59 646.077h-73.143v-36.571h-73.143v73.143c0 20.187-16.384 36.571-36.571 36.571h-219.429c-20.224 0-36.571-16.384-36.571-36.571v-73.143h-73.143v36.571h-73.143v-36.571c-40.338 0-73.143-32.805-73.143-73.143v-365.714c0-40.375 32.805-73.143 73.143-73.143h585.143c40.338 0 73.143 32.768 73.143 73.143v365.714c0 40.338-32.805 73.143-73.143 73.143v36.571zM438.875 646.077h146.286v-36.571h-146.286v36.571z" />
<glyph unicode="&#xe910;" glyph-name="resume-project" d="M146.286 938.667h731.429c80.791 0 146.286-65.494 146.286-146.286v-731.429c0-80.791-65.494-146.286-146.286-146.286h-731.429c-80.791 0-146.286 65.494-146.286 146.286v731.429c0 80.791 65.494 146.286 146.286 146.286v0zM219.429 646.077v146.286l-146.286-146.286h146.286zM950.857 572.934h-402.286l-0.366 0.439-255.634-255.671v-0.768l201.545-201.545 456.741 457.545zM365.714 792.363h-73.143v-371.237l208.64 208.64-135.497 162.597zM545.821 63.685l2.743-2.743h365.714l-228.425 142.775-140.032-140.032z" />
<glyph unicode="&#xe911;" glyph-name="resume-skills" d="M146.286 938.667h731.429c80.791 0 146.286-65.494 146.286-146.286v-731.429c0-80.791-65.494-146.286-146.286-146.286h-731.429c-80.791 0-146.286 65.494-146.286 146.286v731.429c0 80.791 65.494 146.286 146.286 146.286v0zM768 646.096h-73.143c-40.375 0-73.143-32.768-73.143-73.143v-109.714h-219.429v109.714c0 40.375-32.768 73.143-73.143 73.143h-73.143c-40.375 0-73.143-32.768-73.143-73.143v-292.571c0-40.411 32.768-73.143 73.143-73.143h73.143c40.375 0 73.143 32.731 73.143 73.143v109.714h219.429v-109.714c0-40.411 32.768-73.143 73.143-73.143h73.143c40.375 0 73.143 32.731 73.143 73.143v292.571c0 40.375-32.768 73.143-73.143 73.143zM877.714 353.542h73.143v146.286h-73.143v-146.286zM73.143 353.542h73.143v146.286h-73.143v-146.286z" />
<glyph unicode="&#xe912;" glyph-name="sortbonus" d="M841.143 499.822c20.187 0 36.571-16.384 36.571-36.571v-219.429c0-20.187-16.384-36.571-36.571-36.571h-36.571v-73.143c0-40.338-32.805-73.143-73.143-73.143h-512c-40.338 0-73.143 32.805-73.143 73.143v438.857c0 40.338 32.805 73.143 73.143 73.143h29.513l359.168 143.653c17.701 7.058 37.815-0.585 46.336-17.591l63.013-126.062h13.97c40.338 0 73.143-32.805 73.143-73.143v-73.143h36.571zM804.571 280.394v146.286h-167.717l-73.143-73.143 73.143-73.143h167.717zM731.319 134.108l0.037 73.143h-109.641c-9.691 0-19.017 3.877-25.856 10.679l-109.714 109.714c-14.299 14.336-14.299 37.449 0 51.749l109.714 109.714c6.839 6.839 16.165 10.715 25.856 10.715h109.714v73.143h-512v-438.857h511.89zM604.050 709.377l-158.135-63.269h189.769l-31.634 63.269zM621.714 353.524c0 20.151 16.384 36.571 36.571 36.571s36.571-16.421 36.571-36.571c0-20.224-16.384-36.571-36.571-36.571s-36.571 16.347-36.571 36.571z" />
<glyph unicode="&#xe913;" glyph-name="sortdefault" d="M768 258.954v387.141c0 20.198 16.374 36.571 36.571 36.571s36.571-16.374 36.571-36.571v-387.141l47.287 47.287c6.621 6.617 15.763 10.712 25.856 10.712 20.187 0 36.571-16.384 36.571-36.571 0-10.094-4.096-19.237-10.715-25.856-0.103-0.103-0.206-0.205-0.31-0.307l-109.097-109.097c-0.102-0.104-0.204-0.208-0.307-0.31-6.619-6.619-15.762-10.715-25.856-10.715s-19.237 4.096-25.856 10.715c-0.103 0.103-0.205 0.206-0.307 0.31l-109.097 109.097c-0.104 0.102-0.208 0.204-0.31 0.307-6.619 6.619-10.715 15.762-10.715 25.856 0 20.187 16.384 36.571 36.571 36.571 10.093 0 19.235-4.095 25.854-10.714l47.289-47.285zM146.286 463.238h475.429c20.198 0 36.571-16.374 36.571-36.571s-16.374-36.571-36.571-36.571h-475.429c-20.198 0-36.571 16.374-36.571 36.571s16.374 36.571 36.571 36.571v0zM146.286 646.096h475.429c20.198 0 36.571-16.374 36.571-36.571v0c0-20.198-16.374-36.571-36.571-36.571h-475.429c-20.198 0-36.571 16.374-36.571 36.571s16.374 36.571 36.571 36.571v0zM146.286 280.381h365.714c20.198 0 36.571-16.374 36.571-36.571s-16.374-36.571-36.571-36.571h-365.714c-20.198 0-36.571 16.374-36.571 36.571s16.374 36.571 36.571 36.571v0z" />
<glyph unicode="&#xe914;" glyph-name="sortintegral" d="M222.57 682.649c17.408-14.885 77.897-36.571 143.141-36.571 12.507 0 24.686 0.951 36.571 2.377v-73.399c-13.495-1.353-26.039-2.121-36.571-2.121-37.083 0-98.011 8.192-146.286 28.489v-24.905c10.642-14.665 75.483-40.155 146.286-40.155 12.507 0 24.686 0.951 36.571 2.414v-73.435c-13.495-1.353-26.039-2.121-36.571-2.121-37.083 0-98.011 8.192-146.286 28.489v-24.905c10.642-14.665 75.483-40.155 146.286-40.155 12.507 0 24.686 0.951 36.571 2.414v-73.435c-13.495-1.353-26.039-2.121-36.571-2.121-37.083 0-98.011 8.192-146.286 28.489v-24.905c10.642-14.665 75.483-40.155 146.286-40.155 12.507 0 24.686 0.951 36.571 2.414v-73.435c-13.495-1.353-26.039-2.121-36.571-2.121-37.083 0-98.011 8.192-146.286 28.489v-25.344c11.63-14.702 76.215-39.717 146.286-39.717 12.507 0 24.686 0.951 36.571 2.414v-73.435c-13.495-1.353-26.075-2.121-36.571-2.121-68.718 0-219.429 27.611-219.429 109.714v438.857c0 82.030 150.711 109.714 219.429 109.714s219.429-27.685 219.429-109.714h-76.288c-17.408 14.811-77.897 36.571-143.141 36.571s-125.733-21.76-143.141-36.571zM658.286 609.506c68.718 0 219.429-27.685 219.429-109.714v-329.143c0-82.103-150.711-109.714-219.429-109.714s-219.429 27.611-219.429 109.714v329.143c0 82.030 150.711 109.714 219.429 109.714zM658.286 134.077c70.071 0 134.656 25.015 146.286 39.717v25.344c-48.274-20.297-109.166-28.489-146.286-28.489s-98.011 8.192-146.286 28.489v-25.344c11.63-14.702 76.215-39.717 146.286-39.717zM658.286 536.363c-65.243 0-125.733-21.76-143.141-36.571 17.408-14.885 77.897-36.571 143.141-36.571s125.733 21.687 143.141 36.571c-17.408 14.811-77.897 36.571-143.141 36.571zM804.571 283.947v24.905c-48.274-20.297-109.166-28.489-146.286-28.489s-98.011 8.192-146.286 28.489v-24.905c10.606-14.665 75.483-40.155 146.286-40.155s135.68 25.49 146.286 40.155zM804.571 393.661v24.905c-48.274-20.297-109.166-28.489-146.286-28.489s-98.011 8.192-146.286 28.489v-24.905c10.606-14.665 75.483-40.155 146.286-40.155s135.68 25.49 146.286 40.155z" />
<glyph unicode="&#xe915;" glyph-name="star-small" d="M496.44 125.514l-166.217-61.745c-24.158-8.974-50.707 4.209-59.298 29.446-1.92 5.639-2.823 11.6-2.666 17.583l4.85 184.217c0.294 11.151-3.102 22.067-9.614 30.908l-107.578 146.057c-15.636 21.228-11.837 51.678 8.484 68.012 4.541 3.65 9.689 6.39 15.184 8.082l169.214 52.108c10.243 3.154 19.132 9.901 25.168 19.102l99.73 152.013c14.495 22.094 43.391 27.73 64.541 12.588 4.726-3.383 8.811-7.651 12.050-12.588l99.73-152.013c6.037-9.202 14.926-15.948 25.168-19.102l169.214-52.108c24.594-7.573 38.654-34.54 31.405-60.232-1.62-5.741-4.243-11.118-7.737-15.861l-107.578-146.057c-6.512-8.841-9.907-19.757-9.613-30.908l4.85-184.217c0.705-26.775-19.501-49.077-45.132-49.813-5.727-0.165-11.433 0.78-16.831 2.785l-166.217 61.745c-10.061 3.738-21.049 3.738-31.11 0z" />
<glyph unicode="&#xe916;" glyph-name="star" d="M490.216 8.371l-232.703-82.749c-33.822-12.027-70.99 5.641-83.017 39.463-2.687 7.557-3.953 15.546-3.732 23.564l6.79 246.885c0.411 14.944-4.342 29.574-13.459 41.422l-150.609 195.743c-21.89 28.45-16.572 69.258 11.878 91.148 6.357 4.891 13.564 8.563 21.257 10.831l236.9 69.834c14.34 4.227 26.784 13.269 35.236 25.6l139.622 203.725c20.293 29.61 60.748 37.163 90.358 16.87 6.616-4.534 12.336-10.254 16.87-16.87l139.622-203.725c8.452-12.332 20.896-21.373 35.236-25.6l236.9-69.834c34.432-10.15 54.116-46.29 43.966-80.722-2.268-7.693-5.94-14.901-10.831-21.257l-150.609-195.743c-9.117-11.849-13.87-26.478-13.459-41.422l6.79-246.885c0.987-35.883-27.302-65.772-63.185-66.759-8.018-0.221-16.007 1.045-23.564 3.732l-232.703 82.749c-14.086 5.009-29.468 5.009-43.554 0z" />
<glyph unicode="&#xe917;" glyph-name="type-deliver-resume" d="M433.259 463.238l-83.485 137.517 313.6-137.517h-230.115zM663.471 390.096l-313.705-137.532 83.494 137.532h230.211zM512-85.333c-282.77 0-512 229.23-512 512s229.23 512 512 512c282.77 0 512-229.23 512-512s-229.23-512-512-512zM268.418 716.297c-10.431 4.573-22.435 3.777-32.171-2.133-16.5-10.017-21.756-31.514-11.739-48.014l145.387-239.483-145.387-239.483c-10.017-16.5-4.761-37.997 11.739-48.014 9.736-5.91 21.74-6.706 32.171-2.133l584.171 256.107c18.498 8.11 26.92 29.68 18.81 48.178-3.686 8.408-10.4 15.122-18.807 18.809l-584.174 256.167z" />
<glyph unicode="&#xe918;" glyph-name="type-enclosure-resume" d="M512-85.333c-282.77 0-512 229.23-512 512s229.23 512 512 512c282.77 0 512-229.23 512-512s-229.23-512-512-512zM402.286 207.238c0-100.974 81.883-182.857 182.857-182.857 101.010 0 182.857 81.883 182.857 182.857 0 149.455 0 271.36 0 365.714 0 141.531-127.086 256-256 256-141.385 0-256-114.469-256-256v-329.143c0-20.198 16.374-36.571 36.571-36.571s36.571 16.374 36.571 36.571v0 329.143c0 100.974 81.883 182.857 182.857 182.857s182.857-81.883 182.857-182.857v-365.714c0-60.599-49.115-109.714-109.714-109.714s-109.714 49.115-109.714 109.714v365.714c0 20.187 16.384 36.571 36.571 36.571s36.571-16.384 36.571-36.571v-329.143c0-20.198 16.374-36.571 36.571-36.571s36.571 16.374 36.571 36.571v0 329.143c0 60.599-49.115 109.714-109.714 109.714s-109.714-49.115-109.714-109.714c0-235.422 0-357.327 0-365.714z" />
<glyph unicode="&#xe919;" glyph-name="type-fast-resume" d="M512-85.333c-282.77 0-512 229.23-512 512s229.23 512 512 512c282.77 0 512-229.23 512-512s-229.23-512-512-512zM475.414 60.934c10.898 0 21.504 4.864 28.562 13.714l292.571 365.714c8.777 11.008 10.496 26.039 4.425 38.693-6.107 12.654-18.907 20.736-32.987 20.736h-182.857v256c0 15.543-9.801 29.367-24.466 34.487-14.629 5.157-30.939 0.475-40.631-11.63l-292.571-365.714c-8.814-11.045-10.496-26.039-4.425-38.693 6.107-12.654 18.907-20.736 32.951-20.736h182.857v-256c0-15.543 9.838-29.367 24.466-34.487 3.986-1.426 8.082-2.085 12.105-2.085zM332.091 426.649l179.895 224.878v-188.306c0-20.187 16.384-36.571 36.571-36.571h143.36l-179.931-224.914v188.343c0 20.187-16.347 36.571-36.571 36.571h-143.323z" />
<glyph unicode="&#xe91a;" glyph-name="urgent-job" d="M756.237 158.694l-63.493 20.459c-2.633-45.641-8.777-73.728-18.432-83.383-7.022-7.899-18.432-12.288-35.109-12.288h-172.032c-19.31 0-28.965 11.41-28.965 33.353v136.046h-84.261v-153.6c0-59.685 28.965-89.527 88.649-89.527h212.407c35.109 0 61.44 6.144 78.117 18.432 17.817 12.958 29.656 49.829 36.896 109.924 27.959-42.408 51.549-82.268 70.77-119.579l69.339 49.152c-28.965 52.663-70.217 114.981-123.758 185.198l-66.706-42.13c12.865-17.745 25.057-35.097 36.577-52.057zM0 865.844c0 40.219 32.911 72.823 72.823 72.823h878.355c40.219 0 72.823-32.911 72.823-72.823v-878.355c0-40.219-32.911-72.823-72.823-72.823h-878.355c-40.219 0-72.823 32.911-72.823 72.823v878.355zM818.257 307.885v322.999h-165.010c22.821 24.576 46.519 51.785 70.217 83.383v57.051h-273.847l31.598 47.397-83.383 19.31c-73.728-107.081-161.499-191.342-263.314-252.782l53.541-64.073c18.432 12.288 36.864 25.454 56.174 39.497v-3.511h494.153v-52.663h-465.189v-70.217h465.189v-52.663h-498.542v-73.728h578.414zM551.432 630.884h-223.817c22.821 22.821 45.641 46.519 68.462 71.973h225.573c-23.698-26.331-47.397-50.907-70.217-71.973zM218.778 252.881c-16.677-63.195-44.763-123.758-84.261-179.931l71.973-45.641c40.375 59.685 71.973 129.024 93.915 209.774l-81.627 15.799zM568.694 252.881l-68.462-42.13c40.375-42.13 71.973-79.872 94.793-113.225l69.339 48.274c-21.943 30.72-53.541 66.706-95.671 107.081z" />
<glyph unicode="&#xe91b;" glyph-name="clean" d="M512 17.067c-226.216 0-409.6 183.384-409.6 409.6s183.384 409.6 409.6 409.6c226.216 0 409.6-183.384 409.6-409.6s-183.384-409.6-409.6-409.6zM597.109 455.037l56.74 56.74c15.668 15.668 15.668 41.071 0 56.74s-41.071 15.668-56.74 0l-56.74-56.74c-15.668-15.668-41.071-15.668-56.74 0l-56.74 56.74c-15.668 15.668-41.071 15.668-56.74 0s-15.668-41.071 0-56.74l56.74-56.74c15.668-15.668 15.668-41.071 0-56.74l-56.74-56.74c-15.668-15.668-15.668-41.071 0-56.74s41.071-15.668 56.74 0l56.74 56.74c15.668 15.668 41.071 15.668 56.74 0l56.74-56.74c15.668-15.668 41.071-15.668 56.74 0s15.668 41.071 0 56.74l-56.74 56.74c-15.668 15.668-15.668 41.071 0 56.74z" />
<glyph unicode="&#xe91c;" glyph-name="close-window" d="M475.796 546.539l-214.8 214.8c-23.104 23.104-60.564 23.104-83.668 0s-23.104-60.564 0-83.668l214.8-214.8c19.995-19.995 19.995-52.413 0-72.408l-214.8-214.8c-23.104-23.104-23.104-60.564 0-83.668s60.564-23.104 83.668 0l214.8 214.8c19.995 19.995 52.413 19.995 72.408 0l214.8-214.8c23.104-23.104 60.564-23.104 83.668 0s23.104 60.564 0 83.668l-214.8 214.8c-19.995 19.995-19.995 52.413 0 72.408l214.8 214.8c23.104 23.104 23.104 60.564 0 83.668s-60.564 23.104-83.668 0l-214.8-214.8c-19.995-19.995-52.413-19.995-72.408 0z" />
<glyph unicode="&#xe91d;" glyph-name="edit-resume" d="M707.748 769.016l36.864 36.762c39.168 39.117 107.469 39.117 146.637 0l-0.102 0.102c39.168-39.168 39.168-107.469 0-146.688l-36.762-36.813-146.637 146.637zM162.058 198.085l101.171-20.224 20.275-101.171-161.946-40.499 40.499 161.894zM289.956 276.984l-61.901 12.339 407.296 407.245 37.171-37.12-382.566-382.464zM362.353 204.536l382.515 382.515 37.171-37.069-407.296-407.296-12.39 61.85zM963.645 878.225c-38.963 38.912-90.675 60.314-145.766 60.314-54.989 0-106.803-21.402-145.715-60.365l-584.141-584.141c-6.554-6.554-11.213-14.746-13.466-23.757l-73.062-292.045c-4.301-17.459 0.819-35.942 13.517-48.589 12.646-12.749 31.181-17.869 48.589-13.517l292.096 73.062c8.96 2.202 17.203 6.912 23.757 13.466l584.141 584.141c38.912 38.912 60.314 90.726 60.314 145.715 0 55.040-21.402 106.854-60.365 145.766l0.102-0.051z" />
<glyph unicode="&#xe91e;" glyph-name="eyes-closed" d="M822.418 597.148c-7.504-8.236-15.439-16.349-23.803-24.268-72.522-68.669-161.703-109.222-271.224-109.222-109.505 0-198.596 40.539-270.993 109.182-11.298 10.713-21.811 21.778-31.534 33.027-0.458-0.074-0.915-0.148-1.373-0.223-1.483 2.678-3.207 5.252-5.175 7.686-17.803 22.027-48.783 24.309-69.194 5.096l-132.316-124.55c-20.411-19.213-22.525-52.645-4.722-74.673s48.783-24.309 69.194-5.096l108.465 102.099c21.224-21.024 46.247-42.322 75.258-61.771l-76.743-104.925c-16.55-22.628-9.787-53.166 15.106-68.21s58.489-8.896 75.039 13.732l80.87 110.568c30.919-11.735 64.778-20.73 101.69-25.725l0.978-134.044c0.201-27.571 23.032-49.761 50.993-49.563s50.466 22.71 50.265 50.281l-0.949 130.11c44.715 3.088 85.307 12.008 121.944 24.804l65.876-126.457c13.345-25.617 43.987-35.051 68.441-21.072s33.461 46.077 20.116 71.694l-62.478 119.935c32.193 20.019 59.848 42.502 83.187 64.893l80.096-92.628c18.55-21.452 49.533-22.442 69.202-2.211s20.577 54.023 2.027 75.475l-106.891 123.616c-18.55 21.452-49.533 22.442-69.202 2.211-5.547-5.705-9.601-12.489-12.148-19.769z" />
<glyph unicode="&#xe91f;" glyph-name="eyes-open" d="M512 733.867c369.685 0 512-329.46 512-329.46s-152.515-310.54-512.224-310.54c-359.709 0-511.776 310.54-511.776 310.54s142.315 329.46 512 329.46zM113.166 414.672c20.789-30.449 46.454-61.106 76.938-89.626 85.936-80.4 191.688-127.883 321.672-127.883 130.003 0 235.862 47.499 321.946 127.93 30.537 28.532 56.257 59.201 77.099 89.662 11.987 17.52 10.374-32.385-1.145-13.775-19.973 32.267-44.918 64.723-74.856 94.872-84.18 84.773-189.818 134.717-322.82 134.717s-238.64-49.945-322.82-134.717c-29.938-30.148-54.883-62.604-74.856-94.872-11.519-18.61-13.114 31.202-1.158 13.691zM509.593 207.195c-112.551 0-203.792 92.495-203.792 206.594s91.241 206.594 203.792 206.594c112.551 0 203.792-92.495 203.792-206.594s-91.241-206.594-203.792-206.594z" />
<glyph unicode="&#xe920;" glyph-name="form-Birthday" d="M563.2 375.467h102.4v153.6h102.4v-153.6c56.554 0 102.4-45.846 102.4-102.4v-153.6h-716.8v153.6c0 56.554 45.846 102.4 102.4 102.4v153.6h102.4v-153.6h102.4v204.8h102.4v-204.8zM256 375.467v0zM716.8 597.782c-28.228 0-51.2 22.972-51.2 51.2 0 21.76 25.975 61.764 37.154 77.961 6.383 9.233 21.709 9.233 28.092 0 11.162-16.196 37.154-56.201 37.154-77.961 0-28.228-22.972-51.2-51.2-51.2zM512 648.982c-28.228 0-51.2 22.972-51.2 51.2 0 21.76 25.975 61.764 37.154 77.961 6.383 9.233 21.709 9.233 28.092 0 11.162-16.196 37.154-56.201 37.154-77.961 0-28.228-22.972-51.2-51.2-51.2zM307.2 597.782c-28.228 0-51.2 22.972-51.2 51.2 0 21.76 25.975 61.764 37.154 77.961 6.383 9.233 21.709 9.233 28.092 0 11.162-16.196 37.154-56.201 37.154-77.961 0-28.228-22.972-51.2-51.2-51.2zM128 68.267h793.6c14.138 0 25.6-11.462 25.6-25.6s-11.462-25.6-25.6-25.6h-793.6c-14.138 0-25.6 11.462-25.6 25.6s11.462 25.6 25.6 25.6v0z" />
<glyph unicode="&#xe921;" glyph-name="form-certificate" d="M704 42.667h-384v76.8h384v-76.8zM857.6 772.267c21.197 0 38.4-17.242 38.4-38.4v-153.6c0-11.674-5.299-22.733-14.4-30.029l-189.274-151.373c-34.637-43.622-84.71-74.304-141.926-83.942v-41.856h76.8c21.197 0 38.4-17.242 38.4-38.4v-76.8h-307.2v76.8c0 21.158 17.203 38.4 38.4 38.4h76.8v41.856c-57.216 9.638-107.29 40.32-141.926 83.942l-189.274 151.373c-9.101 7.296-14.4 18.355-14.4 30.029v153.6c0 21.158 17.203 38.4 38.4 38.4h125.875c13.325 22.81 37.824 38.4 66.125 38.4h307.2c28.301 0 52.8-15.59 66.125-38.4h125.875zM819.2 598.699v96.768h-76.8v-153.6c0-1.613-0.192-3.187-0.23-4.8l77.030 61.632zM204.8 598.699l77.030-61.632c-0.038 1.613-0.23 3.187-0.23 4.8v153.6h-76.8v-96.768z" />
<glyph unicode="&#xe922;" glyph-name="form-city" d="M416 575.749c0-54.031 43.008-97.882 96-97.882s96 43.851 96 97.882c0 54.031-43.008 97.882-96 97.882s-96-43.851-96-97.882zM742.4 575.749c0-156.612-230.4-430.682-230.4-430.682s-230.4 274.071-230.4 430.682c0 129.753 103.142 234.918 230.4 234.918 127.219 0 230.4-105.165 230.4-234.918zM294.4 42.667c-21.208 0-38.4 17.192-38.4 38.4s17.192 38.4 38.4 38.4v0h435.2c21.208 0 38.4-17.192 38.4-38.4s-17.192-38.4-38.4-38.4h-435.2z" />
<glyph unicode="&#xe923;" glyph-name="form-company" d="M588.8 426.667h281.6v51.2h-716.8v-51.2h281.6c0-28.277 22.923-51.2 51.2-51.2h51.2c28.277 0 51.2 22.923 51.2 51.2zM819.2 657.067v-25.6c28.237 0 51.2-22.963 51.2-51.2v-409.6c0-28.262-22.963-51.2-51.2-51.2h-614.4c-28.237 0-51.2 22.938-51.2 51.2v409.6c0 28.237 22.963 51.2 51.2 51.2v25.6h76.8v-25.6h102.4v51.2c0 14.131 11.443 25.6 25.6 25.6h204.8c14.131 0 25.6-11.469 25.6-25.6v-51.2h102.4v25.6h76.8zM435.2 657.067v-25.6h153.6v25.6h-153.6z" />
<glyph unicode="&#xe924;" glyph-name="form-date" d="M793.6 401.067h-153.6v153.6h153.6v-153.6zM588.8 401.067h-153.6v153.6h153.6v-153.6zM588.8 196.267h-153.6v153.6h153.6v-153.6zM384 401.067h-153.6v153.6h153.6v-153.6zM384 196.267h-153.6v153.6h153.6v-153.6zM768 759.467v51.2h-102.4v-128h-51.2v76.8h-204.8v51.2h-102.4v-128h-51.2v76.8h-76.8c-28.237 0-51.2-22.989-51.2-51.2v-588.8c0-28.237 22.963-51.2 51.2-51.2h665.6c28.237 0 51.2 22.963 51.2 51.2v588.8c0 28.211-22.963 51.2-51.2 51.2h-76.8z" />
<glyph unicode="&#xe925;" glyph-name="form-Education" d="M153.6 477.026v-139.959c0-21.208-17.192-38.4-38.4-38.4s-38.4 17.192-38.4 38.4v192h0.041c-0.003 0.060-0.005 0.12-0.008 0.179-0.633 15.013 7.913 28.96 21.839 35.666l380.62 179.159c20.715 9.751 44.7 9.751 65.415 0v0l380.62-179.159c13.927-6.706 22.472-20.653 21.839-35.666s-10.405-28.236-24.846-33.799l-384.641-136.469c-16.613-5.894-34.747-5.894-51.36 0v0l-332.72 118.048zM512 263.45c4.908 0 9.776 0.87 14.442 2.61l267.158 101.025v-110.791c0-14.946-8.609-28.667-22.246-35.349-68.871-33.846-140.156-75.877-259.354-75.877-119.278 0-190.362 41.952-259.354 75.877-13.637 6.682-22.246 20.403-22.246 35.349v119.174l266.112-108.972c4.948-2.017 10.218-3.045 15.488-3.045zM115.2 247.467c21.197 0 38.4-17.203 38.4-38.4v-76.8c0-21.197-17.203-38.4-38.4-38.4s-38.4 17.203-38.4 38.4v76.8c0 21.197 17.203 38.4 38.4 38.4z" />
<glyph unicode="&#xe926;" glyph-name="form-email" d="M512 344.747c-45.134 0-81.881 36.747-81.881 81.92 0 45.134 36.747 81.92 81.881 81.92 45.173 0 81.92-36.786 81.92-81.92 0-45.173-36.747-81.92-81.92-81.92zM512 836.267c-225.826 0-409.6-183.735-409.6-409.6s183.774-409.6 409.6-409.6c83.519 0 163.567 24.654 231.561 71.348l-66.238 96.471c-48.372-33.236-105.56-50.79-165.322-50.79-161.304 0-292.571 131.228-292.571 292.571 0 161.304 131.267 292.571 292.571 292.571 161.343 0 292.571-131.267 292.571-292.571v-30.544c0-25.005-5.578-66.979-42.91-66.979h-15.565c-11.391 0.429-34.367 22.704-35.109 33.899v63.625h-0.039c0 109.734-89.254 198.949-198.949 198.949s-198.91-89.215-198.91-198.949c0-109.695 89.215-198.949 198.91-198.949 45.68 0 87.342 16.15 120.969 42.13 29.335-33.821 71.192-57.734 113.089-57.734h15.604c94.169 0 159.939 75.678 159.939 184.008v30.544c0 225.865-183.735 409.6-409.6 409.6z" />
<glyph unicode="&#xe927;" glyph-name="form-empno" d="M780.8 401.067h-230.4v76.8h230.4v-76.8zM780.8 247.467h-230.4v76.8h230.4v-76.8zM512 631.467c-21.158 0-38.4 17.203-38.4 38.4 0 21.12 17.242 38.4 38.4 38.4s38.4-17.28 38.4-38.4c0-21.197-17.242-38.4-38.4-38.4v0zM243.2 247.467c0 70.656 44.506 115.2 115.2 115.2s115.2-44.544 115.2-115.2h-230.4zM358.4 554.667c42.394 0 76.8-34.406 76.8-76.8 0-42.432-34.406-76.8-76.8-76.8s-76.8 34.368-76.8 76.8c0 42.394 34.406 76.8 76.8 76.8v0zM819.2 708.267h-199.104c-15.898 44.582-58.099 76.8-108.096 76.8s-92.198-32.218-108.096-76.8h-199.104c-42.355 0-76.8-34.445-76.8-76.8v-460.8c0-42.355 34.445-76.8 76.8-76.8h614.4c42.355 0 76.8 34.445 76.8 76.8v460.8c0 42.355-34.445 76.8-76.8 76.8v0z" />
<glyph unicode="&#xe928;" glyph-name="form-Invite-code" d="M128 580.267v76.8h691.2c42.415 0 76.8-34.385 76.8-76.8v-307.2c0-42.415-34.385-76.8-76.8-76.8v0h-691.2v76.8h76.8v51.2h-76.8v76.8h76.8v51.2h-76.8v76.8h76.8v51.2h-76.8zM345.6 554.667c-21.208 0-38.4-17.192-38.4-38.4s17.192-38.4 38.4-38.4h384c21.208 0 38.4 17.192 38.4 38.4s-17.192 38.4-38.4 38.4h-384zM345.6 375.467c-21.208 0-38.4-17.192-38.4-38.4s17.192-38.4 38.4-38.4h179.2c21.208 0 38.4 17.192 38.4 38.4s-17.192 38.4-38.4 38.4h-179.2z" />
<glyph unicode="&#xe929;" glyph-name="form-major" d="M486.4 666.268v-564.685l-69.171 43.469h-212.429c-28.262 0-51.2 22.938-51.2 51.2v460.8c0 28.262 22.938 51.2 51.2 51.2h204.8c11.622 0 22.886-3.942 31.949-11.213l44.851-30.771zM614.4 708.267h204.8c28.262 0 51.2-22.938 51.2-51.2v-460.8c0-28.262-22.938-51.2-51.2-51.2h-212.429l-69.171-43.52v564.736l44.851 30.771c9.062 7.27 20.326 11.213 31.949 11.213z" />
<glyph unicode="&#xe92a;" glyph-name="form-message" d="M511.988 459.064l-344.256 213.658c11.021 6.144 23.539 9.946 37.056 9.946h614.4c13.517 0 26.035-3.802 37.056-9.946l-344.256-213.658zM532.237 381.25c0 0 363.763 224.947 363.763 224.64v-358.423c0-42.355-34.445-76.8-76.8-76.8h-614.4c-42.355 0-76.8 34.445-76.8 76.8 0 0 0.115 359.076 0.115 359.421l363.61-225.638c6.221-3.84 13.248-5.76 20.275-5.76s14.016 1.92 20.237 5.76z" />
<glyph unicode="&#xe92b;" glyph-name="form-name" d="M512 401.067c-112.947 0-204.8 91.853-204.8 204.8s91.853 204.8 204.8 204.8c112.947 0 204.8-91.853 204.8-204.8s-91.853-204.8-204.8-204.8zM512 349.867c211.008 0 358.4-117.288 358.4-285.257v-47.543h-716.8v47.543c0 167.969 147.392 285.257 358.4 285.257z" />
<glyph unicode="&#xe92c;" glyph-name="form-password" d="M632.686 479.147h-241.371v158.72c0 65.631 54.148 119.040 120.686 119.040s120.686-53.409 120.686-119.040v-158.72zM512 201.387c-33.309 0-60.343 26.665-60.343 59.52s27.034 59.52 60.343 59.52c33.309 0 60.343-26.665 60.343-59.52s-27.034-59.52-60.343-59.52v0zM713.143 479.147v158.72c0 109.398-90.233 198.4-201.143 198.4s-201.143-89.002-201.143-198.4v-158.72c-44.372 0-80.457-35.553-80.457-79.36v-277.76c0-43.767 36.085-79.36 80.457-79.36h402.286c44.372 0 80.457 35.593 80.457 79.36v277.76c0 43.807-36.085 79.36-80.457 79.36v0z" />
<glyph unicode="&#xe92d;" glyph-name="form-pencil" d="M823.155 519.234l-218.573 218.573 27.61 27.648c60.211 60.25 158.323 60.288 218.573 0 60.288-60.25 60.326-158.4 0-218.611l-27.61-27.61zM550.269 683.525l82.138-82.138-286.925-286.963-137.126 27.187 341.914 341.914zM139.324 53.953c-9.562 9.562-13.363 23.347-10.138 36.518l44.928 179.597 151.334-29.952 29.99-151.334-179.674-44.928c-13.094-3.226-26.957 0.576-36.442 10.099zM686.712 547.097l82.176-82.176-341.952-341.914-27.149 137.088 286.925 287.002z" />
<glyph unicode="&#xe92e;" glyph-name="form-phone" d="M793.6 759.467v-665.6c0-42.394-34.406-76.8-76.8-76.8h-409.6c-42.394 0-76.8 34.406-76.8 76.8v665.6c0 42.394 34.406 76.8 76.8 76.8h409.6c42.394 0 76.8-34.406 76.8-76.8zM716.8 221.867v460.8h-409.6v-460.8h409.6zM512 68.267c28.277 0 51.2 22.923 51.2 51.2s-22.923 51.2-51.2 51.2c-28.277 0-51.2-22.923-51.2-51.2s22.923-51.2 51.2-51.2z" />
<glyph unicode="&#xe92f;" glyph-name="form-school" d="M204.911 511.399c-21.197 0-38.4 17.466-38.4 39.074v52.749c0 15.434 8.947 29.422 22.81 35.713l307.2 138.907c9.946 4.493 21.235 4.493 31.181 0l307.2-138.907c13.901-6.291 22.81-20.279 22.81-35.713v-52.749c0-21.608-17.203-39.074-38.4-39.074h-614.4zM879.277 132.998c3.878-11.917 1.92-25.007-5.299-35.205s-18.816-16.216-31.142-16.216h-661.44c-12.365 0-23.923 6.017-31.142 16.216s-9.216 23.288-5.299 35.205l12.787 39.074c5.261 15.981 19.93 26.726 36.442 26.726h49.114v273.516h76.8v-273.516h76.8v273.516h76.8v-273.516h76.8v273.516h76.8v-273.516h76.8v273.516h76.8v-273.516h49.152c16.512 0 31.181-10.745 36.403-26.726l12.826-39.074z" />
<glyph unicode="&#xe930;" glyph-name="form-verification-code" d="M204.8 733.867h614.4c42.394 0 76.8-27.525 76.8-61.44v-491.52c0-33.915-34.406-61.44-76.8-61.44h-614.4c-42.394 0-76.8 27.525-76.8 61.44v491.52c0 33.915 34.406 61.44 76.8 61.44zM256 273.067h512l-190.822 307.2-150.272-241.896-65.178 104.918-105.728-170.221z" />
<glyph unicode="&#xe931;" glyph-name="go-large" d="M301.967 707.375c-28.77 31.167-26.826 79.755 4.341 108.525s79.755 26.826 108.525-4.341l307.2-332.8c27.156-29.419 27.156-74.765 0-104.184l-307.2-332.8c-28.77-31.167-77.358-33.111-108.525-4.341s-33.111 77.358-4.341 108.525l243.087 263.344c9.052 9.806 9.052 24.922 0 34.728l-243.087 263.344z" />
<glyph unicode="&#xe932;" glyph-name="go-small" d="M398.427 266.65c-22.711-25.477-18.109-62.654 10.281-83.036s69.814-16.251 92.526 9.226l175.541 196.921c19.233 21.576 19.233 52.234 0 73.809l-175.541 196.921c-22.711 25.477-64.136 29.608-92.526 9.226s-32.992-57.558-10.281-83.036l142.644-160.017-142.644-160.017z" />
<glyph unicode="&#xe933;" glyph-name="preview-resume" d="M864.695 146.416l153.159-153.159c19.992-19.992 19.992-52.405 0-72.397s-52.405-19.992-72.397 0v0l-153.169 153.169c-86.3-70.084-193.14-108.172-305.899-108.172-129.869 0-252.036 50.586-343.885 142.515-91.93 91.686-142.515 213.935-142.515 343.885s50.586 252.036 142.515 343.885c91.849 91.93 214.016 142.515 343.885 142.515 129.95 0 252.036-50.586 343.885-142.596 91.93-91.767 142.515-213.854 142.515-343.804 0-112.69-38.040-219.588-108.095-305.84zM102.39 452.257c0-102.592 39.936-199.104 112.512-271.488 72.512-72.576 168.96-112.512 271.488-112.512 102.592 0 198.976 39.936 271.488 112.448 72.576 72.448 112.512 168.96 112.512 271.552s-39.936 198.976-112.512 271.424c-72.512 72.64-168.896 112.576-271.488 112.576-102.528 0-198.976-39.936-271.488-112.512-72.576-72.512-112.512-168.896-112.512-271.488zM307.2 221.867c0 109.969 69.231 179.2 179.2 179.2s179.2-69.231 179.2-179.2h-358.4zM614.4 580.267c0-70.656-57.344-128-128-128-70.72 0-128 57.344-128 128s57.28 128 128 128c70.656 0 128-57.344 128-128z" />
<glyph unicode="&#xe934;" glyph-name="Recommend" d="M238.933 554.646c23.552 0 42.667-19.115 42.667-42.667v-426.667c0-23.552-19.115-42.667-42.667-42.667h-170.667c-23.552 0-42.667 19.115-42.667 42.667v426.667c0 23.552 19.115 42.667 42.667 42.667h170.667zM962.901 581.978c8.107-9.728 11.52-22.528 9.216-34.944l-85.333-469.333c-3.669-20.309-21.333-35.072-41.984-35.072h-341.333c-5.419 0-10.795 1.067-15.829 3.072l-154.837 61.909v404.352l131.499 272.811c6.699 15.701 22.144 25.856 39.168 25.856h128c23.595 0 42.667-19.115 42.667-42.667v-170.667h256c12.672 0 24.661-5.632 32.768-15.317z" />
<glyph unicode="&#xe935;" glyph-name="titlebar-back" d="M722.033 707.375c28.77 31.167 26.826 79.755-4.341 108.525s-79.755 26.826-108.525-4.341l-307.2-332.8c-27.156-29.419-27.156-74.765 0-104.184l307.2-332.8c28.77-31.167 77.358-33.111 108.525-4.341s33.111 77.358 4.341 108.525l-243.087 263.344c-9.052 9.806-9.052 24.922 0 34.728l243.087 263.344z" />
<glyph unicode="&#xe936;" glyph-name="titlebar-close" d="M475.796 541.533l-278.443 278.443c-21.722 21.722-56.94 21.722-78.662 0s-21.722-56.94 0-78.662l278.443-278.443c19.995-19.995 19.995-52.413 0-72.408l-278.443-278.443c-21.722-21.722-21.722-56.94 0-78.662s56.94-21.722 78.662 0l278.443 278.443c19.995 19.995 52.413 19.995 72.408 0l278.443-278.443c21.722-21.722 56.94-21.722 78.662 0s21.722 56.94 0 78.662l-278.443 278.443c-19.995 19.995-19.995 52.413 0 72.408l278.443 278.443c21.722 21.722 21.722 56.94 0 78.662s-56.94 21.722-78.662 0l-278.443-278.443c-19.995-19.995-52.413-19.995-72.408 0z" />
<glyph unicode="&#xe937;" glyph-name="titlebar-search" d="M832.721 188.675l143.894-143.894c22.869-22.844 22.869-59.92 0-82.738-22.844-22.869-59.869-22.869-82.713 0l-143.906 143.906c-73.155-55.767-164.509-88.882-263.596-88.882-240.354 0-435.2 194.846-435.2 435.2s194.846 435.2 435.2 435.2c240.354 0 435.2-194.846 435.2-435.2 0-99.086-33.114-190.437-88.879-263.592zM486.412 119.443c183.807 0 332.812 149.005 332.812 332.812s-149.005 332.812-332.812 332.812c-183.807 0-332.812-149.005-332.812-332.812s149.005-332.812 332.812-332.812z" />
<glyph unicode="&#xe938;" glyph-name="add" d="M512-85.333c-282.77 0-512 229.23-512 512s229.23 512 512 512c282.77 0 512-229.23 512-512s-229.23-512-512-512zM384 503.467h-153.6c-28.277 0-51.2-22.923-51.2-51.2v-51.2c0-28.277 22.923-51.2 51.2-51.2h153.6c28.277 0 51.2-22.923 51.2-51.2v-153.6c0-28.277 22.923-51.2 51.2-51.2h51.2c28.277 0 51.2 22.923 51.2 51.2v153.6c0 28.277 22.923 51.2 51.2 51.2h153.6c28.277 0 51.2 22.923 51.2 51.2v51.2c0 28.277-22.923 51.2-51.2 51.2h-153.6c-28.277 0-51.2 22.923-51.2 51.2v153.6c0 28.277-22.923 51.2-51.2 51.2h-51.2c-28.277 0-51.2-22.923-51.2-51.2v-153.6c0-28.277-22.923-51.2-51.2-51.2v0z" />
<glyph unicode="&#xe939;" glyph-name="titlebar-settings" d="M512-85.333c-282.77 0-512 229.23-512 512s229.23 512 512 512c282.77 0 512-229.23 512-512s-229.23-512-512-512zM205.093 155.403c75.046-84.843 184.73-138.336 306.907-138.336s231.861 53.493 306.907 138.336c-5.355 94.16-83.407 168.864-178.907 168.864h-256c-95.5 0-173.552-74.704-178.907-168.864v0zM512 375.467c113.108 0 204.8 91.692 204.8 204.8s-91.692 204.8-204.8 204.8c-113.108 0-204.8-91.692-204.8-204.8s91.692-204.8 204.8-204.8z" />
<glyph unicode="&#xe93a;" glyph-name="titlebar-share" d="M708.011 189.045l-352.928 208.548c2.169 9.34 3.316 19.073 3.316 29.074s-1.147 19.733-3.316 29.074l352.928 208.548c22.676-20.405 52.682-32.822 85.589-32.822 70.692 0 128 57.308 128 128s-57.308 128-128 128c-70.692 0-128-57.308-128-128 0-10.001 1.147-19.733 3.316-29.074l-352.928-208.548c-22.676 20.405-52.682 32.822-85.589 32.822-70.692 0-128-57.308-128-128s57.308-128 128-128c32.906 0 62.913 12.417 85.589 32.822l352.928-208.548c-2.169-9.34-3.316-19.073-3.316-29.074 0-70.692 57.308-128 128-128s128 57.308 128 128c0 70.692-57.308 128-128 128-32.906 0-62.913-12.417-85.589-32.822z" />
<glyph unicode="&#xe93c;" glyph-name="nav-job" d="M208.593 862.815h606.815c41.892 0 75.852-33.96 75.852-75.852v-720.593c0-41.892-33.96-75.852-75.852-75.852h-606.815c-41.892 0-75.852 33.96-75.852 75.852v720.593c0 41.892 33.96 75.852 75.852 75.852v0zM265.481 711.111c-20.946 0-37.926-16.98-37.926-37.926s16.98-37.926 37.926-37.926h493.037c20.946 0 37.926 16.98 37.926 37.926v0c0 20.946-16.98 37.926-37.926 37.926v0h-493.037zM265.481 559.408c-20.946 0-37.926-16.98-37.926-37.926s16.98-37.926 37.926-37.926h493.037c20.946 0 37.926 16.98 37.926 37.926v0c0 20.946-16.98 37.926-37.926 37.926v0h-493.037zM265.481 407.704c-20.946 0-37.926-16.98-37.926-37.926s16.98-37.926 37.926-37.926h227.556c20.946 0 37.926 16.98 37.926 37.926s-16.98 37.926-37.926 37.926h-227.556z" />
<glyph unicode="&#xe93d;" glyph-name="nav-resume" d="M151.704 786.963h720.593c41.892 0 75.852-33.96 75.852-75.852v-568.889c0-41.892-33.96-75.852-75.852-75.852h-720.593c-41.892 0-75.852 33.96-75.852 75.852v568.889c0 41.892 33.96 75.852 75.852 75.852v0zM379.259 445.63c52.365 0 94.815 42.45 94.815 94.815s-42.45 94.815-94.815 94.815c-52.365 0-94.815-42.45-94.815-94.815s42.45-94.815 94.815-94.815zM530.963 293.926c0 83.784-67.92 151.704-151.704 151.704s-151.704-67.92-151.704-151.704c0-83.784 303.407-83.784 303.407 0zM682.667 407.704c-20.946 0-37.926-16.98-37.926-37.926s16.98-37.926 37.926-37.926h75.852c20.946 0 37.926 16.98 37.926 37.926s-16.98 37.926-37.926 37.926h-75.852zM606.815 559.408c-20.946 0-37.926-16.98-37.926-37.926s16.98-37.926 37.926-37.926h151.704c20.946 0 37.926 16.98 37.926 37.926s-16.98 37.926-37.926 37.926h-151.704z" />
<glyph unicode="&#xe93e;" glyph-name="nav-reward" d="M258.503 616.297c-9.888 4.266-18.182 8.266-24.25 11.77-58.956 34.038-79.158 109.424-45.121 168.378s109.424 79.152 168.38 45.113c25.699-14.837 79.084-59.786 120.861-102.142 12.567-12.742 23.815-24.665 33.628-35.901 9.812 11.236 21.061 23.16 33.628 35.901 41.777 42.357 95.162 87.305 120.861 102.142 58.956 34.038 134.343 13.841 168.38-45.113s13.835-134.34-45.121-168.378c-6.068-3.503-14.362-7.504-24.25-11.77h125.762c10.473 0 18.963-8.49 18.963-18.963v-151.704c0-10.473-8.49-18.963-18.963-18.963h-18.963v-398.222c0-10.473-8.49-18.963-18.963-18.963h-682.667c-10.473 0-18.963 8.49-18.963 18.963v398.222h-18.963c-10.473 0-18.963 8.49-18.963 18.963v151.704c0 10.473 8.49 18.963 18.963 18.963v0h125.762zM555.623 634.823c17.667 1.837 40.405 6.349 66.11 13.048 51.556 13.434 111.426 35.111 130.089 45.886 22.678 13.093 30.448 42.089 17.357 64.763s-42.087 30.442-64.765 17.349c-18.662-10.775-67.37-51.785-104.783-89.717-18.581-18.839-33.812-36.212-44.233-50.562 0.076-0.256 0.151-0.511 0.225-0.766zM568.889 540.445h-113.778v-455.111h113.778v455.111zM424.368 686.151c-37.412 37.932-86.12 78.942-104.783 89.717-22.678 13.093-51.674 5.325-64.765-17.349s-5.321-51.67 17.357-64.763c18.662-10.775 78.532-32.452 130.089-45.886 26.115-6.805 49.167-11.354 66.951-13.133-10.433 14.512-25.899 32.201-44.849 51.414z" />
<glyph unicode="&#xe93f;" glyph-name="nav-schedule" d="M748.371 824.889c-13.115 22.672-37.628 37.926-65.704 37.926h-341.333c-28.076 0-52.589-15.254-65.704-37.926h472.742zM824.223 749.037c-13.115 22.672-37.628 37.926-65.704 37.926h-493.037c-28.076 0-52.589-15.254-65.704-37.926h624.445zM485.182 327.251l-80.453 80.453c-14.811 14.811-38.824 14.811-53.635 0s-14.811-38.824 0-53.635l107.271-107.271c7.405-7.405 17.112-11.108 26.818-11.108s19.412 3.703 26.818 11.108l160.906 160.906c14.811 14.811 14.811 38.824 0 53.635s-38.824 14.811-53.635 0l-134.088-134.088zM208.593 711.111h606.815c41.892 0 75.852-33.96 75.852-75.852v-530.963c0-41.892-33.96-75.852-75.852-75.852h-606.815c-41.892 0-75.852 33.96-75.852 75.852v530.963c0 41.892 33.96 75.852 75.852 75.852v0z" />
<glyph unicode="&#xe940;" glyph-name="female" d="M456.836 331.494c34.322-25.961 77.078-41.36 123.43-41.36 113.108 0 204.8 91.692 204.8 204.8s-91.692 204.8-204.8 204.8c-113.108 0-204.8-91.692-204.8-204.8 0-46.352 15.399-89.108 41.36-123.43l-48.862-48.862-80.020 80.020c-12.003 12.003-28.007 12.003-40.010 0s-12.003-28.007 0-40.010l80.020-80.020-60.015-60.015c-12.003-12.003-12.003-28.007 0-40.010s28.007-12.003 40.010 0l60.015 60.015 80.020-80.020c12.003-12.003 28.007-12.003 40.010 0s12.003 28.007 0 40.010l-80.020 80.020 48.862 48.862zM512-85.333c-282.77 0-512 229.23-512 512s229.23 512 512 512c282.77 0 512-229.23 512-512s-229.23-512-512-512zM580.267 358.4c-75.405 0-136.533 61.128-136.533 136.533s61.128 136.533 136.533 136.533c75.405 0 136.533-61.128 136.533-136.533s-61.128-136.533-136.533-136.533z" />
<glyph unicode="&#xe941;" glyph-name="male" d="M563.059 524.866c-33.6 24.128-74.803 38.334-119.325 38.334-113.108 0-204.8-91.692-204.8-204.8s91.692-204.8 204.8-204.8c113.108 0 204.8 91.692 204.8 204.8 0 47.361-16.077 90.968-43.070 125.66l113.531 115.043v-134.175c0-8.386 8.259-16.772 12.389-20.965s12.389-12.579 24.777-16.772c16.518 0 28.907 12.579 28.907 29.351v201.262c0 8.386-4.13 20.965-12.389 29.351s-20.648 12.579-28.907 12.579h-198.219c-16.518 0-28.907-12.579-28.907-29.351s12.389-29.351 28.907-29.351h132.146l-114.64-116.166zM512-85.333c-282.77 0-512 229.23-512 512s229.23 512 512 512c282.77 0 512-229.23 512-512s-229.23-512-512-512zM443.733 221.867c-75.405 0-136.533 61.128-136.533 136.533s61.128 136.533 136.533 136.533c75.405 0 136.533-61.128 136.533-136.533s-61.128-136.533-136.533-136.533z" />
</font>
</defs>
</svg>
